<svg width="96" height="96" viewBox="0 0 96 96" fill="none" xmlns="http://www.w3.org/2000/svg" role="img" aria-labelledby="title desc">
  <title id="title">Master of Public Administration mark</title>
  <desc id="desc">A premium academic seal with columns and a governance star.</desc>
  <rect width="96" height="96" rx="28" fill="#8C6A2F"/>
  <path d="M48 13L78 29V34H18V29L48 13Z" fill="#FFFDF7"/>
  <path d="M25 40H33V67H25V40ZM43.5 40H52.5V67H43.5V40ZM63 40H71V67H63V40Z" fill="#FFFDF7"/>
  <path d="M20 72H76V80H20V72Z" fill="#FFFDF7"/>
  <path d="M48 24L51.1 30.2L58 31.2L53 36.1L54.2 43L48 39.7L41.8 43L43 36.1L38 31.2L44.9 30.2L48 24Z" fill="#D4A373"/>
</svg>
